<?xml version="1.0" encoding="UTF-8"?>
<!DOCTYPE svg PUBLIC "-//W3C//DTD SVG 1.1//EN" "http://www.w3.org/Graphics/SVG/1.1/DTD/svg11.dtd">
<!-- Creator: CorelDRAW 2019 (64-Bit) -->
<svg xmlns="http://www.w3.org/2000/svg" xml:space="preserve" width="526px" height="109px" version="1.1" style="shape-rendering:geometricPrecision; text-rendering:geometricPrecision; image-rendering:optimizeQuality; fill-rule:evenodd; clip-rule:evenodd"
viewBox="0 0 134.82 27.99"
 xmlns:xlink="http://www.w3.org/1999/xlink">
 <defs>
  <style type="text/css">
   <![CDATA[
    .str0 {stroke:#2B2A29;stroke-width:0.61;stroke-miterlimit:22.9256}
    .str2 {stroke:#E53924;stroke-width:0.61;stroke-miterlimit:22.9256}
    .str1 {stroke:#3A3A3A;stroke-width:0.5;stroke-miterlimit:22.9256}
    .fil0 {fill:#E63C24}
    .fil1 {fill:#FDEC03;fill-rule:nonzero}
    .fil2 {fill:#1F1B20;fill-rule:nonzero}
   ]]>
  </style>
 </defs>
 <g id="Capa_x0020_1">
  <metadata id="CorelCorpID_0Corel-Layer"/>
  <circle class="fil0 str0" cx="91.69" cy="13.99" r="13.69"/>
  <path class="fil1 str1" d="M99.27 12.09c0,0.57 -0.2,0.89 -0.61,0.94 -0.51,0.06 -1.73,0.29 -3.66,0.71 -1.92,0.41 -3.34,0.74 -4.24,0.98 0,0.4 0,1.25 0.01,2.55 0.01,1.3 0.04,2.4 0.07,3.3 0.02,0.35 0.06,0.74 0.13,1.16 0.06,0.43 0.1,0.73 0.12,0.91 0.11,0.67 0.17,1.06 0.17,1.19 0,0.21 -0.1,0.5 -0.29,0.9 -0.2,0.4 -0.36,0.59 -0.49,0.59 -0.12,0 -0.24,-0.06 -0.36,-0.19 -0.11,-0.13 -0.18,-0.28 -0.22,-0.47 -0.18,-0.83 -0.31,-2.17 -0.38,-4.03 -0.1,-2.27 -0.14,-4.04 -0.14,-5.31 -0.11,0.02 -0.29,0.05 -0.54,0.1 -0.25,0.05 -0.46,0.08 -0.65,0.1 -0.18,0 -0.38,-0.05 -0.58,-0.14 -0.2,-0.09 -0.3,-0.2 -0.3,-0.33 0,-0.15 0.05,-0.26 0.15,-0.33 0.1,-0.08 0.22,-0.14 0.34,-0.18 0.13,-0.05 0.23,-0.08 0.28,-0.1 0.66,-0.28 1.11,-0.45 1.33,-0.53l-0.22 -6.16c-1.37,0.23 -2.37,0.34 -3.02,0.34 -0.71,0 -1.21,-0.18 -1.49,-0.53 -0.26,-0.35 -0.38,-0.67 -0.38,-0.97 0,-0.16 0.12,-0.24 0.36,-0.24 0.03,0 0.25,0.06 0.64,0.19 0.4,0.13 0.75,0.19 1.04,0.19 0.59,0 1.53,-0.09 2.82,-0.27 0,-0.04 0.01,-0.18 0.03,-0.43 0.01,-0.25 0.1,-0.48 0.24,-0.68 0.1,-0.16 0.18,-0.28 0.25,-0.33 0.08,-0.06 0.16,-0.08 0.25,-0.08 0.35,0 0.53,0.38 0.53,1.16 0.25,-0.06 0.84,-0.17 1.75,-0.33 0.91,-0.17 1.96,-0.33 3.14,-0.47 1.17,-0.15 2.2,-0.23 3.06,-0.23 0.7,0 1.05,0.14 1.05,0.42 0,0.22 -0.08,0.51 -0.23,0.86 -0.16,0.35 -0.34,0.52 -0.54,0.52 -0.07,0 -0.15,-0.04 -0.22,-0.12 -0.08,-0.09 -0.13,-0.14 -0.17,-0.16 -0.16,-0.07 -0.4,-0.11 -0.72,-0.11 -0.57,0 -1.7,0.12 -3.41,0.36 -1.7,0.24 -2.93,0.44 -3.69,0.61l0.2 6c0.99,-0.26 2.52,-0.61 4.58,-1.05 2.07,-0.45 3.27,-0.67 3.62,-0.67 0.15,0 0.25,0.03 0.31,0.07 0.05,0.05 0.08,0.14 0.08,0.29z"/>
  <g id="_2193784559280">
   <path class="fil2 str2" d="M131.03 15.27c-0.03,-1.03 -0.29,-1.8 -0.79,-2.33 -0.5,-0.54 -1.1,-0.8 -1.82,-0.8 -0.77,0 -1.4,0.28 -1.9,0.84 -0.5,0.56 -0.74,1.32 -0.73,2.29l5.24 0zm-0.21 3.56l3.51 0.59c-0.45,1.28 -1.16,2.26 -2.13,2.93 -0.97,0.67 -2.19,1.01 -3.64,1.01 -2.31,0 -4.03,-0.75 -5.13,-2.27 -0.88,-1.21 -1.32,-2.74 -1.32,-4.59 0,-2.2 0.58,-3.93 1.73,-5.18 1.15,-1.25 2.6,-1.87 4.36,-1.87 1.97,0 3.53,0.65 4.68,1.96 1.14,1.31 1.68,3.31 1.63,6.01l-8.79 0c0.03,1.04 0.31,1.85 0.85,2.43 0.54,0.58 1.22,0.87 2.02,0.87 0.55,0 1.01,-0.15 1.38,-0.45 0.38,-0.29 0.66,-0.78 0.85,-1.44z"/>
   <path class="fil2 str2" d="M116.52 23.03l-3.51 0 0 -13.3 3.26 0 0 1.89c0.56,-0.89 1.06,-1.48 1.51,-1.76 0.45,-0.27 0.95,-0.41 1.52,-0.41 0.81,0 1.58,0.22 2.32,0.66l-1.09 3.07c-0.59,-0.39 -1.14,-0.58 -1.65,-0.58 -0.5,0 -0.91,0.14 -1.26,0.41 -0.34,0.27 -0.61,0.76 -0.8,1.47 -0.2,0.7 -0.3,2.19 -0.3,4.45l0 4.1z"/>
   <polygon class="fil2 str2" points="106.05,23.03 106.05,9.73 109.56,9.73 109.56,23.03 "/>
   <polygon class="fil2 str2" points="106.05,7.94 106.05,4.68 109.56,4.68 109.56,7.94 "/>
   <path class="fil2 str2" d="M77.26 23.03l-3.51 0 0 -6.78c0,-1.43 -0.08,-2.36 -0.23,-2.78 -0.15,-0.42 -0.4,-0.75 -0.74,-0.98 -0.34,-0.24 -0.75,-0.35 -1.23,-0.35 -0.61,0 -1.16,0.17 -1.65,0.5 -0.49,0.33 -0.83,0.78 -1,1.32 -0.19,0.55 -0.28,1.57 -0.28,3.06l0 6.01 -3.51 0 0 -13.3 3.26 0 0 1.95c1.16,-1.49 2.63,-2.23 4.4,-2.23 0.78,0 1.49,0.14 2.13,0.42 0.65,0.28 1.14,0.63 1.47,1.07 0.33,0.43 0.56,0.92 0.69,1.47 0.13,0.55 0.2,1.34 0.2,2.36l0 8.26z"/>
   <path class="fil2 str2" d="M52.31 16.41c0,1.31 0.31,2.33 0.93,3.03 0.63,0.7 1.4,1.05 2.32,1.05 0.91,0 1.68,-0.35 2.3,-1.05 0.62,-0.7 0.93,-1.72 0.93,-3.06 0,-1.3 -0.31,-2.31 -0.93,-3.01 -0.62,-0.7 -1.39,-1.05 -2.3,-1.05 -0.92,0 -1.69,0.35 -2.32,1.05 -0.62,0.7 -0.93,1.72 -0.93,3.04zm-3.62 -0.19c0,-1.17 0.29,-2.3 0.87,-3.4 0.57,-1.09 1.39,-1.93 2.44,-2.5 1.06,-0.58 2.23,-0.87 3.53,-0.87 2.02,0 3.66,0.65 4.95,1.96 1.28,1.31 1.92,2.96 1.92,4.96 0,2.01 -0.65,3.68 -1.94,5.01 -1.3,1.32 -2.93,1.98 -4.9,1.98 -1.22,0 -2.38,-0.28 -3.48,-0.83 -1.11,-0.55 -1.95,-1.36 -2.52,-2.42 -0.58,-1.07 -0.87,-2.36 -0.87,-3.89z"/>
   <path class="fil2 str2" d="M40.77 15.75l-2.55 -6.79 -2.47 6.79 5.02 0zm6.79 7.28l-4 0 -1.58 -4.18 -7.36 0 -1.52 4.18 -3.93 0 7.12 -18.35 3.92 0 7.35 18.35z"/>
   <path class="fil2 str2" d="M19.56 7.78l0 5.23 2.02 0c1.46,0 2.43,-0.1 2.92,-0.29 0.49,-0.19 0.88,-0.49 1.15,-0.9 0.28,-0.41 0.42,-0.89 0.42,-1.44 0,-0.67 -0.19,-1.22 -0.58,-1.65 -0.4,-0.44 -0.89,-0.71 -1.49,-0.82 -0.44,-0.08 -1.32,-0.13 -2.66,-0.13l-1.78 0zm-3.71 15.25l0 -18.35 5.94 0c2.25,0 3.71,0.09 4.4,0.28 1.05,0.27 1.93,0.87 2.64,1.8 0.7,0.92 1.06,2.11 1.06,3.57 0,1.13 -0.21,2.07 -0.61,2.84 -0.41,0.77 -0.93,1.37 -1.56,1.81 -0.62,0.43 -1.26,0.73 -1.91,0.87 -0.89,0.17 -2.16,0.26 -3.84,0.26l-2.41 0 0 6.92 -3.71 0z"/>
   <polygon class="fil2 str2" points="0.3,23.03 0.3,4.84 4.02,4.84 4.02,19.93 13.22,19.93 13.22,23.03 "/>
  </g>
 </g>
</svg>
