<?xml version="1.0" encoding="UTF-8"?>
<!DOCTYPE svg PUBLIC "-//W3C//DTD SVG 1.1//EN" "http://www.w3.org/Graphics/SVG/1.1/DTD/svg11.dtd">
<!-- Creator: CorelDRAW 2019 (64-Bit) -->
<svg xmlns="http://www.w3.org/2000/svg" xml:space="preserve" width="526px" height="164px" version="1.1" style="shape-rendering:geometricPrecision; text-rendering:geometricPrecision; image-rendering:optimizeQuality; fill-rule:evenodd; clip-rule:evenodd"
viewBox="0 0 134.82 41.97"
 xmlns:xlink="http://www.w3.org/1999/xlink">
 <defs>
  <style type="text/css">
   <![CDATA[
    .str0 {stroke:#2B2A29;stroke-width:0.61;stroke-miterlimit:22.9256}
    .str2 {stroke:#E53924;stroke-width:0.61;stroke-miterlimit:22.9256}
    .str1 {stroke:#3A3A3A;stroke-width:0.61;stroke-miterlimit:22.9256}
    .fil1 {fill:#E42625}
    .fil0 {fill:#794190}
    .fil2 {fill:#FDEC03;fill-rule:nonzero}
    .fil3 {fill:#1F1B20;fill-rule:nonzero}
   ]]>
  </style>
 </defs>
 <g id="Capa_x0020_1">
  <metadata id="CorelCorpID_0Corel-Layer"/>
  <circle class="fil0 str0" cx="90.33" cy="20.99" r="20.68"/>
  <circle class="fil1 str0" cx="90.33" cy="20.99" r="18.65"/>
  <path class="fil2 str1" d="M102.07 18.15c0,0.89 -0.31,1.37 -0.94,1.45 -0.8,0.09 -2.68,0.45 -5.66,1.09 -2.97,0.64 -5.16,1.15 -6.55,1.52 0,0.63 0,1.94 0.02,3.95 0.01,2.01 0.05,3.71 0.11,5.1 0.02,0.54 0.09,1.14 0.19,1.8 0.1,0.65 0.16,1.12 0.19,1.4 0.17,1.03 0.26,1.64 0.26,1.84 0,0.31 -0.15,0.78 -0.45,1.39 -0.3,0.61 -0.55,0.92 -0.75,0.92 -0.2,0 -0.38,-0.1 -0.55,-0.3 -0.18,-0.2 -0.29,-0.44 -0.35,-0.73 -0.28,-1.28 -0.48,-3.36 -0.59,-6.23 -0.15,-3.5 -0.22,-6.24 -0.22,-8.2 -0.17,0.03 -0.45,0.08 -0.83,0.15 -0.38,0.07 -0.72,0.12 -1,0.15 -0.29,0 -0.59,-0.07 -0.9,-0.22 -0.31,-0.14 -0.47,-0.31 -0.47,-0.51 0,-0.23 0.08,-0.4 0.23,-0.51 0.16,-0.11 0.34,-0.21 0.54,-0.28 0.2,-0.07 0.34,-0.12 0.43,-0.15 1.02,-0.42 1.7,-0.69 2.04,-0.81l-0.34 -9.52c-2.1,0.34 -3.65,0.51 -4.65,0.51 -1.11,0 -1.88,-0.27 -2.31,-0.81 -0.4,-0.54 -0.59,-1.04 -0.59,-1.49 0,-0.26 0.18,-0.39 0.55,-0.39 0.06,0 0.39,0.1 1,0.3 0.62,0.2 1.15,0.3 1.61,0.3 0.91,0 2.36,-0.14 4.35,-0.43 0,-0.05 0.01,-0.28 0.04,-0.66 0.03,-0.38 0.16,-0.73 0.39,-1.05 0.14,-0.25 0.27,-0.42 0.38,-0.51 0.12,-0.08 0.24,-0.13 0.39,-0.13 0.54,0 0.81,0.6 0.81,1.8 0.4,-0.09 1.3,-0.26 2.71,-0.52 1.41,-0.25 3.02,-0.49 4.85,-0.72 1.82,-0.23 3.4,-0.34 4.74,-0.34 1.08,0 1.62,0.21 1.62,0.64 0,0.34 -0.12,0.78 -0.37,1.32 -0.24,0.54 -0.51,0.81 -0.83,0.81 -0.11,0 -0.23,-0.06 -0.34,-0.19 -0.11,-0.13 -0.2,-0.21 -0.26,-0.23 -0.25,-0.12 -0.62,-0.18 -1.11,-0.18 -0.88,0 -2.64,0.19 -5.27,0.56 -2.63,0.37 -4.53,0.68 -5.7,0.94l0.3 9.26c1.54,-0.39 3.9,-0.93 7.09,-1.62 3.19,-0.68 5.05,-1.02 5.59,-1.02 0.23,0 0.39,0.03 0.47,0.1 0.09,0.08 0.13,0.22 0.13,0.45z"/>
  <g id="_2193769242016">
   <path class="fil3 str2" d="M131.03 25.38c-0.03,-1.02 -0.29,-1.8 -0.79,-2.33 -0.5,-0.53 -1.1,-0.8 -1.82,-0.8 -0.77,0 -1.4,0.28 -1.9,0.84 -0.5,0.56 -0.74,1.33 -0.73,2.29l5.24 0zm-0.21 3.56l3.51 0.59c-0.45,1.28 -1.16,2.26 -2.13,2.94 -0.97,0.67 -2.19,1 -3.64,1 -2.31,0 -4.03,-0.75 -5.13,-2.26 -0.88,-1.22 -1.32,-2.75 -1.32,-4.59 0,-2.21 0.58,-3.94 1.73,-5.18 1.15,-1.25 2.6,-1.88 4.36,-1.88 1.97,0 3.53,0.66 4.68,1.96 1.14,1.31 1.68,3.31 1.63,6.01l-8.79 0c0.03,1.04 0.31,1.85 0.85,2.43 0.54,0.58 1.22,0.87 2.02,0.87 0.55,0 1.01,-0.14 1.38,-0.44 0.38,-0.3 0.66,-0.79 0.85,-1.45z"/>
   <path class="fil3 str2" d="M116.52 33.14l-3.51 0 0 -13.3 3.26 0 0 1.89c0.56,-0.89 1.06,-1.48 1.51,-1.75 0.45,-0.28 0.95,-0.42 1.52,-0.42 0.81,0 1.58,0.22 2.32,0.66l-1.09 3.07c-0.59,-0.38 -1.14,-0.58 -1.65,-0.58 -0.5,0 -0.91,0.14 -1.26,0.41 -0.34,0.27 -0.61,0.76 -0.8,1.47 -0.2,0.71 -0.3,2.19 -0.3,4.45l0 4.1z"/>
   <polygon class="fil3 str2" points="106.05,33.14 106.05,19.84 109.56,19.84 109.56,33.14 "/>
   <polygon class="fil3 str2" points="106.05,18.05 106.05,14.8 109.56,14.8 109.56,18.05 "/>
   <path class="fil3 str2" d="M77.26 33.14l-3.51 0 0 -6.78c0,-1.43 -0.08,-2.36 -0.23,-2.78 -0.15,-0.42 -0.4,-0.74 -0.74,-0.98 -0.34,-0.23 -0.75,-0.35 -1.23,-0.35 -0.61,0 -1.16,0.17 -1.65,0.5 -0.49,0.33 -0.83,0.78 -1,1.33 -0.19,0.55 -0.28,1.56 -0.28,3.05l0 6.01 -3.51 0 0 -13.3 3.26 0 0 1.96c1.16,-1.5 2.63,-2.24 4.4,-2.24 0.78,0 1.49,0.14 2.13,0.42 0.65,0.28 1.14,0.64 1.47,1.07 0.33,0.43 0.56,0.92 0.69,1.48 0.13,0.55 0.2,1.33 0.2,2.36l0 8.25z"/>
   <path class="fil3 str2" d="M52.31 26.52c0,1.32 0.31,2.33 0.93,3.03 0.63,0.7 1.4,1.05 2.32,1.05 0.91,0 1.68,-0.35 2.3,-1.05 0.62,-0.7 0.93,-1.72 0.93,-3.06 0,-1.3 -0.31,-2.3 -0.93,-3 -0.62,-0.71 -1.39,-1.06 -2.3,-1.06 -0.92,0 -1.69,0.35 -2.32,1.06 -0.62,0.7 -0.93,1.71 -0.93,3.03zm-3.62 -0.19c0,-1.17 0.29,-2.3 0.87,-3.39 0.57,-1.1 1.39,-1.93 2.44,-2.51 1.06,-0.58 2.23,-0.87 3.53,-0.87 2.02,0 3.66,0.66 4.95,1.96 1.28,1.31 1.92,2.96 1.92,4.96 0,2.01 -0.65,3.68 -1.94,5.01 -1.3,1.32 -2.93,1.98 -4.9,1.98 -1.22,0 -2.38,-0.27 -3.48,-0.82 -1.11,-0.56 -1.95,-1.36 -2.52,-2.43 -0.58,-1.06 -0.87,-2.36 -0.87,-3.89z"/>
   <path class="fil3 str2" d="M40.77 25.86l-2.55 -6.78 -2.47 6.78 5.02 0zm6.79 7.28l-4 0 -1.58 -4.18 -7.36 0 -1.52 4.18 -3.93 0 7.12 -18.34 3.92 0 7.35 18.34z"/>
   <path class="fil3 str2" d="M19.56 17.9l0 5.22 2.02 0c1.46,0 2.43,-0.1 2.92,-0.29 0.49,-0.19 0.88,-0.49 1.15,-0.9 0.28,-0.41 0.42,-0.89 0.42,-1.43 0,-0.67 -0.19,-1.22 -0.58,-1.66 -0.4,-0.44 -0.89,-0.71 -1.49,-0.82 -0.44,-0.08 -1.32,-0.12 -2.66,-0.12l-1.78 0zm-3.71 15.24l0 -18.34 5.94 0c2.25,0 3.71,0.09 4.4,0.27 1.05,0.28 1.93,0.88 2.64,1.8 0.7,0.92 1.06,2.11 1.06,3.57 0,1.13 -0.21,2.07 -0.61,2.84 -0.41,0.77 -0.93,1.37 -1.56,1.81 -0.62,0.44 -1.26,0.73 -1.91,0.87 -0.89,0.17 -2.16,0.26 -3.84,0.26l-2.41 0 0 6.92 -3.71 0z"/>
   <polygon class="fil3 str2" points="0.3,33.14 0.3,14.95 4.02,14.95 4.02,30.04 13.22,30.04 13.22,33.14 "/>
  </g>
 </g>
</svg>
