<?xml version="1.0" encoding="UTF-8"?>
<!DOCTYPE svg PUBLIC "-//W3C//DTD SVG 1.1//EN" "http://www.w3.org/Graphics/SVG/1.1/DTD/svg11.dtd">
<!-- Creator: CorelDRAW 2019 (64-Bit) -->
<svg xmlns="http://www.w3.org/2000/svg" xml:space="preserve" width="353px" height="120px" version="1.1" style="shape-rendering:geometricPrecision; text-rendering:geometricPrecision; image-rendering:optimizeQuality; fill-rule:evenodd; clip-rule:evenodd"
viewBox="0 0 103.68 35.15"
 xmlns:xlink="http://www.w3.org/1999/xlink">
 <defs>
  <style type="text/css">
   <![CDATA[
    .str0 {stroke:#2B2A29;stroke-width:0.38;stroke-miterlimit:22.9256}
    .str2 {stroke:#E63C24;stroke-width:0.38;stroke-miterlimit:22.9256}
    .str1 {stroke:#3A3A3A;stroke-width:0.38;stroke-miterlimit:22.9256}
    .fil2 {fill:#E42625}
    .fil1 {fill:#794190}
    .fil0 {fill:#1F1B20}
    .fil3 {fill:#FEFEFE;fill-rule:nonzero}
   ]]>
  </style>
 </defs>
 <g id="Capa_x0020_1">
  <metadata id="CorelCorpID_0Corel-Layer"/>
  <rect class="fil0 str0" x="0.19" y="0.19" width="103.3" height="34.77"/>
  <circle class="fil1 str0" cx="65.22" cy="16.97" r="12.98"/>
  <circle class="fil2 str0" cx="65.22" cy="16.97" r="11.71"/>
  <path class="fil3 str1" d="M72.59 15.19c0,0.55 -0.2,0.85 -0.59,0.91 -0.5,0.05 -1.69,0.28 -3.55,0.68 -1.87,0.4 -3.24,0.72 -4.12,0.95 0,0.4 0.01,1.22 0.02,2.48 0,1.26 0.03,2.33 0.06,3.2 0.02,0.34 0.06,0.72 0.12,1.13 0.07,0.41 0.11,0.7 0.12,0.88 0.11,0.65 0.16,1.03 0.16,1.16 0,0.19 -0.09,0.48 -0.28,0.87 -0.18,0.38 -0.34,0.57 -0.47,0.57 -0.12,0 -0.24,-0.06 -0.34,-0.19 -0.11,-0.12 -0.18,-0.27 -0.22,-0.45 -0.18,-0.8 -0.3,-2.11 -0.37,-3.91 -0.09,-2.2 -0.14,-3.92 -0.14,-5.15 -0.1,0.02 -0.28,0.05 -0.52,0.1 -0.24,0.04 -0.45,0.07 -0.63,0.09 -0.18,0 -0.37,-0.04 -0.56,-0.13 -0.2,-0.09 -0.3,-0.2 -0.3,-0.33 0,-0.14 0.05,-0.25 0.15,-0.32 0.1,-0.07 0.21,-0.13 0.34,-0.17 0.12,-0.05 0.21,-0.08 0.26,-0.1 0.65,-0.26 1.08,-0.43 1.29,-0.5l-0.21 -5.98c-1.33,0.21 -2.3,0.32 -2.93,0.32 -0.69,0 -1.17,-0.17 -1.44,-0.51 -0.25,-0.34 -0.38,-0.65 -0.38,-0.94 0,-0.16 0.12,-0.24 0.35,-0.24 0.04,0 0.25,0.07 0.63,0.19 0.38,0.13 0.72,0.19 1.01,0.19 0.57,0 1.48,-0.09 2.73,-0.27 0,-0.03 0.01,-0.17 0.03,-0.41 0.01,-0.25 0.09,-0.46 0.24,-0.66 0.09,-0.16 0.17,-0.27 0.24,-0.32 0.07,-0.06 0.15,-0.08 0.24,-0.08 0.34,0 0.51,0.37 0.51,1.12 0.25,-0.05 0.82,-0.16 1.7,-0.32 0.88,-0.16 1.9,-0.31 3.04,-0.45 1.14,-0.15 2.14,-0.22 2.97,-0.22 0.68,0 1.02,0.13 1.02,0.4 0,0.22 -0.07,0.49 -0.22,0.83 -0.16,0.34 -0.33,0.51 -0.53,0.51 -0.07,0 -0.14,-0.04 -0.21,-0.12 -0.07,-0.08 -0.13,-0.13 -0.16,-0.15 -0.16,-0.07 -0.4,-0.1 -0.7,-0.1 -0.55,0 -1.66,0.11 -3.31,0.35 -1.65,0.23 -2.84,0.42 -3.58,0.59l0.19 5.81c0.97,-0.25 2.45,-0.59 4.45,-1.02 2,-0.43 3.17,-0.64 3.51,-0.64 0.14,0 0.24,0.02 0.3,0.07 0.05,0.04 0.08,0.13 0.08,0.28z"/>
  <g id="_1714904886784">
   <path class="fil3 str2" d="M90.76 19.72c-0.02,-0.64 -0.18,-1.13 -0.49,-1.46 -0.32,-0.33 -0.7,-0.5 -1.15,-0.5 -0.48,0 -0.88,0.18 -1.19,0.53 -0.31,0.35 -0.46,0.83 -0.46,1.43l3.29 0zm-0.13 2.24l2.2 0.37c-0.28,0.8 -0.73,1.42 -1.33,1.84 -0.62,0.42 -1.38,0.63 -2.29,0.63 -1.45,0 -2.53,-0.47 -3.22,-1.42 -0.55,-0.76 -0.83,-1.72 -0.83,-2.88 0,-1.38 0.36,-2.47 1.09,-3.25 0.72,-0.79 1.63,-1.18 2.73,-1.18 1.24,0 2.22,0.41 2.94,1.23 0.71,0.82 1.06,2.08 1.02,3.77l-5.51 0c0.02,0.66 0.19,1.16 0.53,1.53 0.34,0.36 0.76,0.55 1.27,0.55 0.34,0 0.63,-0.1 0.87,-0.29 0.23,-0.18 0.41,-0.49 0.53,-0.9z"/>
   <path class="fil3 str2" d="M81.66 24.59l-2.21 0 0 -8.34 2.05 0 0 1.18c0.35,-0.56 0.66,-0.92 0.94,-1.1 0.28,-0.17 0.6,-0.26 0.96,-0.26 0.5,0 0.99,0.14 1.46,0.42l-0.69 1.92c-0.37,-0.24 -0.72,-0.36 -1.04,-0.36 -0.31,0 -0.57,0.08 -0.78,0.25 -0.22,0.18 -0.39,0.48 -0.51,0.93 -0.12,0.44 -0.18,1.37 -0.18,2.79l0 2.57z"/>
   <polygon class="fil3 str2" points="75.08,24.59 75.08,16.25 77.29,16.25 77.29,24.59 "/>
   <polygon class="fil3 str2" points="75.08,15.12 75.08,13.08 77.29,13.08 77.29,15.12 "/>
   <path class="fil3 str2" d="M57.01 24.59l-2.2 0 0 -4.25c0,-0.9 -0.05,-1.48 -0.14,-1.74 -0.1,-0.27 -0.25,-0.47 -0.46,-0.62 -0.22,-0.15 -0.48,-0.22 -0.78,-0.22 -0.38,0 -0.73,0.1 -1.03,0.31 -0.31,0.21 -0.52,0.49 -0.63,0.83 -0.12,0.35 -0.17,0.99 -0.17,1.92l0 3.77 -2.21 0 0 -8.34 2.05 0 0 1.22c0.73,-0.93 1.65,-1.4 2.76,-1.4 0.49,0 0.93,0.09 1.34,0.26 0.41,0.18 0.71,0.4 0.92,0.67 0.21,0.28 0.35,0.59 0.43,0.93 0.08,0.35 0.12,0.84 0.12,1.48l0 5.18z"/>
   <path class="fil3 str2" d="M41.36 20.44c0,0.82 0.19,1.46 0.59,1.9 0.39,0.44 0.87,0.66 1.45,0.66 0.57,0 1.05,-0.22 1.44,-0.66 0.39,-0.44 0.59,-1.08 0.59,-1.92 0,-0.82 -0.2,-1.45 -0.59,-1.89 -0.39,-0.44 -0.87,-0.66 -1.44,-0.66 -0.58,0 -1.06,0.22 -1.45,0.66 -0.4,0.44 -0.59,1.08 -0.59,1.91zm-2.27 -0.12c0,-0.74 0.18,-1.45 0.54,-2.13 0.36,-0.69 0.88,-1.21 1.54,-1.57 0.66,-0.37 1.4,-0.55 2.21,-0.55 1.27,0 2.3,0.41 3.1,1.23 0.81,0.82 1.21,1.86 1.21,3.11 0,1.27 -0.4,2.31 -1.22,3.15 -0.81,0.83 -1.83,1.24 -3.07,1.24 -0.76,0 -1.49,-0.17 -2.19,-0.52 -0.69,-0.34 -1.22,-0.85 -1.58,-1.52 -0.36,-0.67 -0.54,-1.48 -0.54,-2.44z"/>
   <path class="fil3 str2" d="M34.12 20.03l-1.6 -4.26 -1.55 4.26 3.15 0zm4.26 4.56l-2.51 0 -0.99 -2.62 -4.62 0 -0.96 2.62 -2.46 0 4.47 -11.51 2.46 0 4.61 11.51z"/>
   <path class="fil3 str2" d="M20.81 15.03l0 3.28 1.27 0c0.91,0 1.52,-0.07 1.83,-0.19 0.31,-0.12 0.55,-0.3 0.72,-0.56 0.18,-0.26 0.27,-0.56 0.27,-0.9 0,-0.42 -0.13,-0.77 -0.37,-1.04 -0.25,-0.27 -0.56,-0.45 -0.93,-0.52 -0.28,-0.05 -0.84,-0.07 -1.67,-0.07l-1.12 0zm-2.33 9.56l0 -11.51 3.73 0c1.41,0 2.33,0.06 2.76,0.17 0.66,0.18 1.21,0.55 1.65,1.13 0.45,0.58 0.67,1.33 0.67,2.24 0,0.71 -0.13,1.3 -0.38,1.79 -0.26,0.48 -0.58,0.86 -0.98,1.13 -0.39,0.27 -0.79,0.46 -1.2,0.55 -0.56,0.11 -1.36,0.16 -2.41,0.16l-1.51 0 0 4.34 -2.33 0z"/>
   <polygon class="fil3 str2" points="8.72,24.59 8.72,13.18 11.06,13.18 11.06,22.65 16.83,22.65 16.83,24.59 "/>
  </g>
 </g>
</svg>
