<?xml version="1.0" encoding="UTF-8"?>
<!DOCTYPE svg PUBLIC "-//W3C//DTD SVG 1.1//EN" "http://www.w3.org/Graphics/SVG/1.1/DTD/svg11.dtd">
<!-- Creator: CorelDRAW 2019 (64-Bit) -->
<svg xmlns="http://www.w3.org/2000/svg" xml:space="preserve" width="526px" height="164px" version="1.1" style="shape-rendering:geometricPrecision; text-rendering:geometricPrecision; image-rendering:optimizeQuality; fill-rule:evenodd; clip-rule:evenodd"
viewBox="0 0 261.87 81.53"
 xmlns:xlink="http://www.w3.org/1999/xlink">
 <defs>
  <style type="text/css">
   <![CDATA[
    .str0 {stroke:#2B2A29;stroke-width:1.18;stroke-miterlimit:22.9256}
    .str1 {stroke:#3A3A3A;stroke-width:1.18;stroke-miterlimit:22.9256}
    .fil1 {fill:#E42625}
    .fil0 {fill:#794190}
    .fil2 {fill:#FEFEFE;fill-rule:nonzero}
    .fil3 {fill:#6BB536;fill-rule:nonzero}
   ]]>
  </style>
 </defs>
 <g id="Capa_x0020_1">
  <metadata id="CorelCorpID_0Corel-Layer"/>
  <circle class="fil0 str0" cx="175.46" cy="40.77" r="40.18"/>
  <circle class="fil1 str0" cx="175.46" cy="40.77" r="36.23"/>
  <path class="fil2 str1" d="M198.26 35.26c0,1.71 -0.61,2.65 -1.83,2.82 -1.54,0.17 -5.21,0.87 -10.99,2.12 -5.77,1.24 -10.02,2.22 -12.73,2.94 0,1.22 0.02,3.77 0.04,7.67 0.03,3.9 0.1,7.2 0.21,9.91 0.06,1.05 0.18,2.21 0.38,3.49 0.19,1.27 0.31,2.18 0.37,2.73 0.33,1.99 0.5,3.18 0.5,3.57 0,0.61 -0.29,1.51 -0.87,2.7 -0.59,1.18 -1.07,1.78 -1.46,1.78 -0.38,0 -0.74,-0.19 -1.07,-0.58 -0.34,-0.39 -0.56,-0.86 -0.67,-1.41 -0.55,-2.49 -0.94,-6.53 -1.16,-12.11 -0.28,-6.8 -0.41,-12.11 -0.41,-15.93 -0.34,0.06 -0.87,0.16 -1.62,0.29 -0.75,0.14 -1.4,0.24 -1.95,0.29 -0.55,0 -1.13,-0.13 -1.74,-0.41 -0.61,-0.28 -0.91,-0.61 -0.91,-1 0,-0.44 0.15,-0.77 0.45,-0.99 0.31,-0.22 0.65,-0.4 1.04,-0.54 0.39,-0.14 0.66,-0.23 0.83,-0.29 1.99,-0.83 3.32,-1.35 3.98,-1.58l-0.66 -18.49c-4.1,0.66 -7.11,0.99 -9.04,0.99 -2.16,0 -3.65,-0.52 -4.48,-1.57 -0.78,-1.05 -1.16,-2.02 -1.16,-2.9 0,-0.5 0.35,-0.75 1.07,-0.75 0.11,0 0.76,0.19 1.95,0.58 1.19,0.39 2.23,0.58 3.11,0.58 1.77,0 4.59,-0.28 8.46,-0.83 0,-0.11 0.03,-0.54 0.09,-1.29 0.05,-0.74 0.3,-1.42 0.74,-2.03 0.28,-0.5 0.53,-0.83 0.75,-0.99 0.22,-0.17 0.47,-0.25 0.75,-0.25 1.05,0 1.57,1.16 1.57,3.48 0.78,-0.16 2.53,-0.5 5.27,-0.99 2.74,-0.5 5.87,-0.97 9.41,-1.41 3.54,-0.45 6.61,-0.67 9.21,-0.67 2.1,0 3.15,0.42 3.15,1.25 0,0.66 -0.24,1.52 -0.71,2.57 -0.47,1.05 -1,1.57 -1.61,1.57 -0.22,0 -0.44,-0.12 -0.67,-0.37 -0.22,-0.25 -0.38,-0.4 -0.49,-0.45 -0.5,-0.23 -1.22,-0.34 -2.16,-0.34 -1.71,0 -5.13,0.36 -10.24,1.08 -5.12,0.72 -8.81,1.33 -11.08,1.83l0.59 17.99c2.98,-0.77 7.57,-1.82 13.76,-3.15 6.2,-1.32 9.82,-1.99 10.87,-1.99 0.44,0 0.74,0.07 0.91,0.21 0.17,0.14 0.25,0.43 0.25,0.87z"/>
  <g id="_2159291740704">
   <path class="fil3 str1" d="M254.51 49.29c-0.05,-1.98 -0.56,-3.49 -1.53,-4.52 -0.97,-1.03 -2.15,-1.55 -3.54,-1.55 -1.48,0 -2.71,0.55 -3.68,1.64 -0.97,1.08 -1.44,2.57 -1.43,4.43l10.18 0zm-0.4 6.92l6.82 1.15c-0.87,2.49 -2.26,4.39 -4.14,5.7 -1.89,1.3 -4.25,1.96 -7.08,1.96 -4.49,0 -7.82,-1.47 -9.96,-4.4 -1.7,-2.36 -2.56,-5.33 -2.56,-8.92 0,-4.28 1.12,-7.64 3.35,-10.06 2.23,-2.43 5.06,-3.64 8.48,-3.64 3.83,0 6.86,1.27 9.08,3.8 2.22,2.54 3.28,6.43 3.18,11.67l-17.07 0c0.05,2.03 0.6,3.6 1.65,4.73 1.04,1.13 2.35,1.69 3.91,1.69 1.07,0 1.97,-0.29 2.69,-0.87 0.73,-0.58 1.28,-1.52 1.65,-2.81z"/>
   <path class="fil3 str1" d="M226.33 64.37l-6.81 0 0 -25.83 6.32 0 0 3.67c1.08,-1.73 2.06,-2.87 2.93,-3.41 0.87,-0.54 1.86,-0.8 2.96,-0.8 1.56,0 3.06,0.43 4.51,1.28l-2.12 5.96c-1.15,-0.75 -2.22,-1.12 -3.21,-1.12 -0.96,0 -1.77,0.26 -2.44,0.79 -0.66,0.53 -1.18,1.47 -1.56,2.85 -0.38,1.38 -0.58,4.26 -0.58,8.65l0 7.96z"/>
   <polygon class="fil3 str1" points="205.99,64.37 205.99,38.54 212.81,38.54 212.81,64.37 "/>
   <polygon class="fil3 str1" points="205.99,35.06 205.99,28.74 212.81,28.74 212.81,35.06 "/>
   <path class="fil3 str1" d="M150.06 64.37l-6.82 0 0 -13.16c0,-2.79 -0.14,-4.59 -0.43,-5.4 -0.3,-0.82 -0.78,-1.45 -1.44,-1.91 -0.66,-0.45 -1.46,-0.68 -2.39,-0.68 -1.19,0 -2.26,0.33 -3.21,0.97 -0.95,0.65 -1.6,1.51 -1.95,2.57 -0.35,1.07 -0.53,3.05 -0.53,5.93l0 11.68 -6.82 0 0 -25.83 6.32 0 0 3.8c2.27,-2.9 5.11,-4.34 8.56,-4.34 1.51,0 2.89,0.27 4.14,0.81 1.26,0.55 2.21,1.24 2.85,2.07 0.64,0.85 1.09,1.8 1.34,2.87 0.26,1.07 0.38,2.6 0.38,4.59l0 16.03z"/>
   <path class="fil3 str1" d="M101.6 51.51c0,2.56 0.61,4.53 1.82,5.89 1.22,1.37 2.71,2.05 4.49,2.05 1.78,0 3.27,-0.68 4.47,-2.05 1.21,-1.36 1.81,-3.35 1.81,-5.94 0,-2.53 -0.6,-4.48 -1.81,-5.84 -1.2,-1.37 -2.69,-2.05 -4.47,-2.05 -1.78,0 -3.27,0.68 -4.49,2.05 -1.21,1.36 -1.82,3.33 -1.82,5.89zm-7.02 -0.37c0,-2.27 0.56,-4.47 1.68,-6.59 1.12,-2.13 2.7,-3.75 4.75,-4.87 2.05,-1.12 4.33,-1.68 6.86,-1.68 3.91,0 7.1,1.27 9.6,3.8 2.49,2.55 3.74,5.75 3.74,9.63 0,3.92 -1.26,7.16 -3.78,9.73 -2.52,2.57 -5.69,3.86 -9.51,3.86 -2.36,0 -4.62,-0.54 -6.77,-1.61 -2.14,-1.07 -3.77,-2.64 -4.89,-4.71 -1.12,-2.07 -1.68,-4.59 -1.68,-7.56z"/>
   <path class="fil3 str1" d="M79.2 50.24l-4.95 -13.19 -4.81 13.19 9.76 0zm13.19 14.13l-7.78 0 -3.07 -8.11 -14.29 0 -2.96 8.11 -7.63 0 13.83 -35.63 7.62 0 14.28 35.63z"/>
   <path class="fil3 str1" d="M38 34.76l0 10.15 3.93 0c2.82,0 4.71,-0.19 5.66,-0.56 0.95,-0.37 1.7,-0.95 2.24,-1.76 0.54,-0.79 0.81,-1.71 0.81,-2.78 0,-1.3 -0.38,-2.37 -1.13,-3.21 -0.77,-0.85 -1.72,-1.38 -2.89,-1.6 -0.85,-0.15 -2.57,-0.24 -5.16,-0.24l-3.46 0zm-7.21 29.61l0 -35.63 11.53 0c4.37,0 7.22,0.18 8.55,0.53 2.04,0.54 3.75,1.7 5.12,3.49 1.38,1.8 2.07,4.11 2.07,6.95 0,2.19 -0.4,4.02 -1.19,5.51 -0.8,1.49 -1.8,2.66 -3.02,3.52 -1.22,0.84 -2.46,1.41 -3.72,1.68 -1.72,0.34 -4.2,0.52 -7.45,0.52l-4.68 0 0 13.43 -7.21 0z"/>
   <polygon class="fil3 str1" points="0.59,64.37 0.59,29.04 7.8,29.04 7.8,58.35 25.67,58.35 25.67,64.37 "/>
  </g>
 </g>
</svg>
